<svg id="eNZy0wgds3I1" xmlns="http://www.w3.org/2000/svg" xmlns:xlink="http://www.w3.org/1999/xlink" viewBox="0 0 100 100" shape-rendering="geometricPrecision" text-rendering="geometricPrecision" project-id="1d691fbf6c62437b8d52171a717875cb" export-id="c860707b88c746b1aaf187bdda65ba15" cached="false">
  <polygon points="25,0 50,20 75,0 75,70 50,90 25,70" transform="matrix(1.11111 0 0 1.11111-5.5555-.02)" fill="#EB5F33"/>
  <path d="M61.68197,62.045589l27.777676-.000003l27.777824.000008v-49.999964L89.45972,34.26783L61.68197,12.04563v49.999959Z" transform="matrix(.067864 0 0 0.067864 43.928906 29.944054)" fill="#fff" stroke="#fff" stroke-width="3"/>
  <polygon points="35,50 50,70 65,50 60,50 50,60 40,50" transform="matrix(1.322486 0 0 0.795442-16.1243 22.27348)" fill="#fff"/>
  <path d="M49.999995,34.847978L50,60" transform="matrix(1.010757 0 0 1.492597-.537855-19.555871)" fill="#fff" stroke="#fff" stroke-width="4"/>
</svg>
