<svg width="157" height="47" viewBox="0 0 157 47" fill="none" xmlns="http://www.w3.org/2000/svg">
<path d="M8.39534 0.589355L24.6678 0.626505L24.6389 5.20563C22.8083 5.27431 20.9564 5.20679 19.1231 5.22132C19.076 9.5168 19.1229 13.8169 19.1244 18.1129L19.1227 23.2271L13.4068 23.2306L13.3908 5.24525C11.7158 5.24107 10.041 5.22445 8.36623 5.19539C8.37187 3.66522 8.31184 2.11722 8.39534 0.589355Z" fill="#F9F9F9"/>
<path fill-rule="evenodd" clip-rule="evenodd" d="M34.5569 0.607678L28.0992 0.61841C27.9687 2.67652 28.0115 4.7709 28.0541 6.85595C28.0752 7.8882 28.0962 8.91815 28.0962 9.94028C28.096 11.5325 28.0793 13.1256 28.0626 14.7189C28.033 17.5447 28.0033 20.3711 28.0661 23.1947L33.8588 23.1857L33.8608 14.0608C34.5413 14.8413 35.1402 15.7029 35.7331 16.5557C35.9503 16.8681 36.1666 17.1793 36.3859 17.485C37.7545 19.3988 39.1387 21.3033 40.5384 23.1985L42.5426 23.2111C43.0333 23.2084 43.5246 23.2081 44.016 23.2078C45.1232 23.2072 46.2313 23.2065 47.3365 23.1784C46.5025 22.3132 45.7614 21.3382 45.0321 20.3788C44.8302 20.1131 44.6291 19.8486 44.4272 19.5879C42.9319 17.6569 41.443 15.7427 39.8251 13.893C41.6142 13.4515 43.1841 12.7333 44.149 11.2304C45.2903 9.45273 45.3907 7.03299 44.7922 5.08477C44.3175 3.54057 43.3178 2.31368 41.7657 1.5311C40.9512 1.12049 40.0774 0.872007 39.1581 0.742071C37.9601 0.572711 36.7157 0.586614 35.491 0.600295C35.178 0.603792 34.8662 0.607275 34.5569 0.607678ZM34.5072 4.99265C34.3076 4.9981 34.1131 5.00341 33.9264 5.00553C33.9261 5.61074 33.928 6.21621 33.9299 6.82178C33.9342 8.21946 33.9386 9.61763 33.9164 11.0141C34.0757 11.0125 34.2332 11.0121 34.3888 11.0118C35.7849 11.0083 37.034 11.0052 38.2214 10.1399C38.9766 9.30349 39.2259 8.39642 39.108 7.32292C39.0366 6.67258 38.7656 6.06236 38.1983 5.64035C37.2276 4.91834 35.7668 4.95824 34.5072 4.99265Z" fill="#F9F9F9"/>
<path fill-rule="evenodd" clip-rule="evenodd" d="M63.1252 0.389514L57.793 0.387695C57.004 1.62879 56.2941 3.41152 55.6426 5.04762C55.3587 5.76062 55.0859 6.44579 54.8224 7.04613L47.7266 23.1663L53.7732 23.1699C54.5162 21.8636 55.1226 20.2874 55.5651 18.8759L62.9866 18.8835L65.0004 18.883C65.2236 19.4211 65.4309 19.9668 65.6384 20.5128C65.9866 21.4292 66.3351 22.3466 66.7597 23.2305L72.7941 23.2365C72.4672 22.4836 72.169 21.7216 71.8708 20.9596C71.6504 20.3967 71.4301 19.8337 71.1982 19.2745L67.5894 10.7611L64.6278 3.82332C64.4506 3.41293 64.2622 3.00305 64.0735 2.59247C63.738 1.86266 63.4015 1.13062 63.1252 0.389514ZM63.2865 14.8305C62.9185 13.8122 60.728 7.80542 60.2414 7.4341C59.2799 9.91208 58.2776 12.3763 57.2344 14.8269L60.448 14.8299L63.2865 14.8305Z" fill="#FFAC00"/>
<path d="M89.298 0.535645L96.3064 0.561074C92.9348 4.12928 89.6244 7.77756 86.1521 11.2634C88.473 13.6828 90.6902 16.1938 92.9387 18.6694C94.3039 20.1705 95.6347 21.6964 96.9311 23.247C94.507 23.2167 92.0828 23.2208 89.6588 23.2594C87.9401 21.1658 86.1313 19.1297 84.3559 17.0755C83.259 15.8067 82.2124 14.4905 81.0686 13.257C81.074 16.5893 81.059 19.9215 81.0234 23.2536L75.4129 23.2477L75.3672 0.551168L81.0689 0.555955C81.0505 3.59533 81.0176 6.64858 81.1142 9.68664C83.7545 6.57181 86.4825 3.52148 89.298 0.535645Z" fill="#F9F9F9"/>
<path fill-rule="evenodd" clip-rule="evenodd" d="M109.008 0.0805821C108.995 0.0828926 108.982 0.0852044 108.968 0.0873053C105.329 0.45565 101.945 1.86679 99.6345 4.50397C99.4969 4.65807 99.3637 4.81514 99.2349 4.97518C99.1061 5.13533 98.9818 5.29828 98.862 5.46405C98.7423 5.62992 98.6272 5.79838 98.5167 5.96943C98.4062 6.14048 98.3005 6.31395 98.1997 6.48983C98.099 6.66572 98.0031 6.84381 97.9121 7.02411C97.8211 7.20429 97.7352 7.38651 97.6543 7.57076C97.5734 7.75491 97.4977 7.94081 97.4273 8.12848C97.3567 8.31615 97.2914 8.50525 97.2313 8.69577C97.1713 8.88641 97.1165 9.07832 97.067 9.27149C97.0177 9.46455 96.9737 9.65866 96.935 9.85381C96.8963 10.049 96.863 10.2449 96.8353 10.4416C96.8075 10.6382 96.7852 10.8353 96.7683 11.033C96.7515 11.2307 96.7401 11.4286 96.7343 11.6268C96.7283 11.825 96.7279 12.0231 96.733 12.2214C96.7381 12.4196 96.7487 12.6176 96.7649 12.8153C96.7809 13.013 96.8024 13.2103 96.8294 13.407C97.2621 16.6399 98.9935 19.4697 101.827 21.4708C104.613 23.4376 107.831 23.9671 111.287 23.9024C114.837 23.5781 118.094 22.3252 120.39 19.7704C122.786 17.1048 123.787 13.739 123.375 10.3296C123.013 7.32872 121.427 4.53535 118.81 2.64673C116.19 0.755809 112.436 -0.284671 109.091 0.0681538C109.063 0.0710459 109.036 0.0758112 109.008 0.0805821ZM114.184 6.2691C112.719 5.37507 110.974 5.04717 109.23 5.19906C107.256 5.47957 105.488 6.3112 104.292 7.79795C104.217 7.89228 104.145 7.9882 104.076 8.08572C104.006 8.18324 103.939 8.28225 103.875 8.38275C103.811 8.48324 103.75 8.5851 103.691 8.68835C103.633 8.79159 103.577 8.89611 103.524 9.00188C103.471 9.10766 103.421 9.21453 103.374 9.32251C103.327 9.43049 103.283 9.53946 103.242 9.64941C103.201 9.75948 103.163 9.87032 103.128 9.98193C103.092 10.0937 103.06 10.206 103.031 10.3191C103.002 10.4322 102.976 10.5459 102.954 10.6602C102.931 10.7744 102.911 10.8892 102.894 11.0044C102.878 11.1195 102.865 11.235 102.854 11.3508C102.844 11.4665 102.837 11.5824 102.833 11.6985C102.829 11.8145 102.828 11.9306 102.83 12.0467C102.833 12.1628 102.838 12.2788 102.847 12.3947C102.855 12.5106 102.867 12.6263 102.882 12.7416C102.897 12.8569 102.915 12.9718 102.936 13.0864C102.955 13.1957 102.976 13.3045 103.001 13.4129C103.026 13.5212 103.053 13.6289 103.084 13.736C103.114 13.8431 103.148 13.9495 103.184 14.0552C103.221 14.1607 103.26 14.2654 103.302 14.3692C103.344 14.473 103.389 14.5758 103.437 14.6775C103.485 14.7792 103.536 14.8798 103.589 14.9793C103.643 15.0787 103.699 15.1768 103.758 15.2736C103.817 15.3706 103.878 15.4661 103.942 15.5601C104.007 15.6542 104.073 15.7468 104.143 15.8378C104.212 15.9289 104.284 16.0184 104.358 16.1061C104.432 16.1939 104.508 16.28 104.587 16.3643C104.666 16.4486 104.748 16.5311 104.831 16.6116C104.915 16.6923 105 16.771 105.088 16.8476C105.176 16.9244 105.266 16.9991 105.358 17.0716C105.45 17.1443 105.544 17.2148 105.639 17.2831C105.735 17.3515 105.833 17.4176 105.933 17.4816C107.569 18.5499 109.311 18.8465 111.289 18.704C113.269 18.3801 114.972 17.455 116.133 15.9491C117.337 14.3882 117.671 12.4527 117.287 10.5983C116.929 8.87211 115.797 7.25262 114.184 6.2691Z" fill="#F9F9F9"/>
<path fill-rule="evenodd" clip-rule="evenodd" d="M132.292 0.701941C130.529 0.708367 128.762 0.714804 127.003 0.64502C126.95 5.23175 126.969 9.82265 126.989 14.4129C127.001 17.1925 127.013 19.9719 127.008 22.75C128.995 22.7267 130.982 22.7131 132.969 22.7094L132.985 15.4455C133.369 15.4426 133.754 15.4409 134.14 15.4391C135.195 15.4342 136.251 15.4294 137.305 15.4019C139.697 15.1657 142.064 14.7035 143.66 12.9244C145.18 11.2301 145.442 8.84766 145.177 6.74822C144.953 4.97996 144.162 3.33587 142.6 2.21135C141.65 1.52716 140.551 1.17863 139.372 0.9673C137.834 0.691758 136.248 0.694799 134.682 0.697803C134.474 0.698201 134.267 0.698599 134.06 0.698347C133.472 0.697644 132.882 0.699792 132.292 0.701941ZM133.657 4.94623C133.417 4.95535 133.183 4.9642 132.96 4.96905C132.95 7.03218 132.954 9.09536 132.972 11.1586C133.225 11.161 133.498 11.1703 133.784 11.1801C135.306 11.2321 137.184 11.2962 138.26 10.3914C138.991 9.567 139.273 8.63054 139.157 7.57669C139.077 6.84759 138.782 6.17463 138.15 5.69798C136.985 4.82007 135.183 4.88838 133.657 4.94623Z" fill="#F9F9F9"/>
<path d="M5.16525 29.939C8.60047 29.8655 12.0553 29.9334 15.4924 29.9332L35.4921 29.931L96.7584 29.9442C95.0706 31.5342 93.2736 33.0267 91.5462 34.5808C88.0678 34.4943 84.566 34.567 81.0853 34.5663L60.9885 34.5653L0 34.5567C1.61397 32.9552 3.46313 31.4711 5.16525 29.939Z" fill="#F9F9F9"/>
<path fill-rule="evenodd" clip-rule="evenodd" d="M143.562 20.6454C144.148 20.6391 144.707 20.6675 145.289 20.7299C145.863 21.2301 146.326 21.9453 146.763 22.6214C146.931 22.8811 147.095 23.1351 147.26 23.3689C147.52 23.7359 147.781 24.103 148.042 24.4705L148.044 24.4721C149.215 26.1183 150.392 27.7737 151.466 29.4655C151.303 29.6824 151.117 29.8875 150.931 30.0912C150.869 30.1591 150.807 30.2268 150.746 30.2948C151.03 30.7409 151.321 31.1864 151.611 31.6326C152.344 32.7573 153.08 33.8869 153.728 35.044C153.846 35.2549 153.984 35.5721 154.13 35.9085C154.385 36.494 154.665 37.1377 154.91 37.3812C154.963 37.434 155.076 37.4776 155.156 37.5085L155.173 37.5151C155.557 37.6653 155.84 37.8215 156.089 38.1346C156.345 38.4559 156.556 38.991 156.465 39.3882C156.405 39.6486 155.957 39.9014 155.652 40.0737C155.594 40.1064 155.541 40.1363 155.497 40.1627L154.677 40.0273C154.166 40.4255 153.636 40.8155 153.103 41.2071C151.945 42.0575 150.777 42.9158 149.78 43.8836C148.747 43.9109 147.707 43.9057 146.669 43.9005H146.669H146.669H146.669H146.669H146.669H146.669H146.669H146.669H146.668H146.668H146.668H146.668H146.668H146.668H146.668H146.668H146.668H146.668C146.175 43.898 145.682 43.8955 145.191 43.8965C144.927 43.897 144.658 43.9025 144.385 43.908C143.591 43.9242 142.773 43.9408 142.013 43.8362C138.993 43.4197 133.722 40.4095 131.08 38.88C133.536 38.7598 136.568 38.4407 138.736 37.3726C140.704 36.4031 141.73 34.9106 142.355 33.0103C143.125 32.9921 143.895 32.9702 144.664 32.9446C144.584 34.8064 144.045 36.6128 142.665 38.0347C140.937 39.8149 138.26 39.8687 135.757 39.919L135.757 39.919C135.238 39.9295 134.727 39.9397 134.233 39.9652L134.164 40.0498C134.195 40.0641 134.216 40.0749 134.233 40.0833C134.289 40.111 134.291 40.1123 134.393 40.1257C135.818 40.3138 139.174 40.0902 140.555 39.704C140.831 39.6263 141.098 39.5272 141.356 39.4067C141.614 39.2862 141.857 39.1461 142.088 38.9865C144.064 37.6208 144.737 35.4559 145.035 33.3261C145.436 33.62 145.801 33.8688 146.138 34.099C147.305 34.8952 148.147 35.4703 149.095 36.9283C149.39 37.382 149.712 37.8815 149.855 38.3949C149.946 38.7219 150.008 38.995 150.064 39.2425C150.216 39.9156 150.325 40.4001 150.87 41.2661C150.667 41.4078 150.452 41.5528 150.232 41.7011C149.444 42.2325 148.591 42.807 147.993 43.4291L148.013 43.5158C148.803 43.3358 149.878 42.4968 150.73 41.8319L150.73 41.8319L150.73 41.8319L150.73 41.8318L150.731 41.831C150.983 41.6342 151.215 41.4527 151.415 41.3082C151.369 41.2349 151.322 41.1617 151.275 41.0883C151.088 40.795 150.899 40.4996 150.737 40.196C150.399 39.562 150.387 39.0136 150.632 38.356C150.172 37.7225 149.688 37.1008 149.205 36.4791L149.205 36.4791C148.567 35.6576 147.928 34.8361 147.341 33.9875C146.542 32.8302 145.821 31.6147 145.103 30.4044L145.103 30.4043L145.103 30.4042C144.834 29.9511 144.566 29.4988 144.294 29.0504C143.975 28.5311 143.683 27.9958 143.392 27.4617L143.392 27.4616L143.392 27.4616L143.392 27.4615L143.392 27.4615C143.287 27.2697 143.183 27.0781 143.077 26.8874L142.993 26.9016C141.912 27.0908 140.851 27.3658 139.791 27.6404L139.791 27.6404C139.365 27.7506 138.94 27.8608 138.514 27.9654C135.679 28.673 132.834 29.3468 129.98 29.9867C127.96 33.1397 124.105 37.8125 121.122 40.3012C121.494 40.2656 121.867 40.2317 122.242 40.233C123.158 40.2365 124.003 40.5236 124.636 41.1358C125.299 41.7761 125.636 42.6617 125.601 43.5353C125.599 43.5893 125.596 43.6432 125.591 43.6971C125.587 43.751 125.581 43.8047 125.573 43.8582C125.565 43.9118 125.556 43.9652 125.546 44.0183C125.535 44.0715 125.523 44.1245 125.51 44.1772C125.496 44.2298 125.482 44.2821 125.465 44.334C125.449 44.386 125.431 44.4375 125.412 44.4886C125.392 44.5397 125.372 44.5904 125.35 44.6406C125.328 44.6908 125.304 44.7405 125.28 44.7897C125.255 44.8388 125.229 44.8873 125.201 44.9353C125.174 44.9832 125.145 45.0305 125.115 45.0771C125.085 45.1238 125.054 45.1697 125.021 45.2148C124.989 45.2601 124.955 45.3045 124.92 45.3482C124.885 45.3919 124.848 45.4348 124.811 45.4769C124.773 45.5188 124.735 45.5599 124.695 45.6002C124.656 45.6405 124.615 45.6798 124.573 45.7182C124.531 45.7567 124.488 45.7941 124.444 45.8305C123.297 46.7778 121.899 46.7015 120.485 46.6243L120.484 46.6243C120.324 46.6155 120.162 46.6067 120.002 46.5994C119.783 46.4333 119.573 46.2798 119.328 46.147C119.275 46.2713 119.237 46.3367 119.134 46.4369C119.025 46.5436 118.965 46.557 118.804 46.5799C118.483 46.6254 118.105 46.6088 117.745 46.5931H117.745L117.745 46.5931C117.578 46.5858 117.415 46.5787 117.264 46.5779L113.731 46.569C109.929 46.5649 106.148 46.5968 102.348 46.6869C101.163 46.7151 100.066 46.5419 99.1806 45.7572C99.1383 45.7191 99.097 45.6801 99.0567 45.6401C99.0166 45.6001 98.9776 45.5592 98.9397 45.5175C98.9018 45.4756 98.8651 45.433 98.8297 45.3895C98.7941 45.346 98.7599 45.3017 98.7269 45.2566C98.6939 45.2116 98.6622 45.1658 98.6317 45.1192C98.6013 45.0727 98.5722 45.0255 98.5444 44.9776C98.5166 44.9297 98.4902 44.8812 98.4651 44.8321C98.4401 44.783 98.4164 44.7334 98.3941 44.6832C98.3718 44.633 98.3509 44.5823 98.3315 44.5312C98.3121 44.4801 98.2941 44.4285 98.2775 44.3764C98.261 44.3245 98.246 44.2722 98.2324 44.2194C98.2188 44.1668 98.2067 44.1139 98.196 44.0606C98.1853 44.0073 98.1762 43.9538 98.1685 43.9001C98.1609 43.8465 98.1548 43.7928 98.1502 43.7388C98.1456 43.6848 98.1425 43.6307 98.1409 43.5767C98.1393 43.5225 98.1392 43.4684 98.1407 43.4144C98.1565 42.5696 98.5318 41.7391 99.2348 41.1749C100.176 40.4194 101.114 40.4685 102.237 40.5272L102.238 40.5272C102.325 40.5318 102.412 40.5363 102.501 40.5406C102.433 40.525 102.364 40.5096 102.296 40.4941L102.295 40.4939L102.295 40.4939C101.92 40.4095 101.54 40.3241 101.182 40.1965C100.878 40.0881 100.578 39.9533 100.456 39.659C100.038 38.6525 100.212 33.6462 100.731 32.6822C101.624 32.0504 103.476 32.0215 104.854 32C105.152 31.9954 105.427 31.9911 105.666 31.9812C105.957 30.6049 106.284 29.236 106.65 27.8744C106.597 27.8732 106.54 27.8733 106.481 27.8733C106.251 27.8736 105.984 27.8739 105.795 27.8003C105.497 27.6837 105.338 27.5221 105.234 27.2444L105.238 27.2323C105.309 27.0484 105.324 27.0094 105.532 26.9066C106.387 26.4826 115.193 26.5638 116.339 26.8777C116.772 26.9966 117.198 27.1965 117.495 27.5138C117.927 27.9748 118.457 29.1896 118.939 30.2928C119.228 30.9532 119.498 31.5735 119.72 31.9683C120.085 31.5737 120.495 31.1077 120.933 30.6093L120.933 30.6092C122.395 28.9465 124.173 26.9242 125.651 25.9993C126.285 25.6028 126.897 25.3739 127.645 25.2224C128.159 24.4644 129.131 23.7341 130.024 23.3871C131.65 22.7556 132.998 23.2354 134.477 23.762C134.6 23.8057 134.723 23.8497 134.848 23.8934C136.429 23.6153 138.007 23.2973 139.585 22.9794C140.729 22.7489 141.873 22.5185 143.017 22.3033C143.02 22.1694 143.008 22.0183 142.995 21.862C142.967 21.5268 142.937 21.1677 143.058 20.902C143.139 20.7261 143.28 20.6998 143.448 20.6684C143.484 20.6615 143.523 20.6544 143.562 20.6454ZM107.665 27.9901L107.722 28.0058C107.908 28.056 108.076 28.1013 108.229 28.2231C108.482 28.4254 108.428 30.2752 108.396 31.366V31.366V31.3661V31.3661V31.3661V31.3662V31.3662V31.3663L108.396 31.3663L108.396 31.3667C108.387 31.6895 108.379 31.9458 108.382 32.073L108.274 32.1207L108.361 32.19L108.325 32.4052C108.183 32.344 108.063 32.2463 107.945 32.1497L107.945 32.1497C107.913 32.1237 107.882 32.0977 107.85 32.0727C107.587 31.9331 107.299 31.8485 107.011 31.7638L107.011 31.7638L107.011 31.7638L107.011 31.7638C106.956 31.7476 106.901 31.7314 106.846 31.7149C106.874 31.5655 106.901 31.415 106.929 31.2639C107.131 30.172 107.339 29.0425 107.665 27.9901ZM118.633 45.4257C118.031 45.2371 106.085 45.3545 104.514 45.3989L104.387 45.5962C104.528 45.7062 104.671 45.7135 104.842 45.7222L104.843 45.7222L104.843 45.7222L104.843 45.7223C104.863 45.7233 104.883 45.7243 104.904 45.7255C105.6 45.7668 106.316 45.7515 107.026 45.7363C107.373 45.7289 107.719 45.7215 108.061 45.7207L114.576 45.7255C114.862 45.7261 115.15 45.7254 115.438 45.7247H115.439H115.44H115.441H115.442H115.443H115.444H115.445H115.446H115.446H115.446H115.446H115.446H115.446H115.446H115.446H115.446C116.633 45.7218 117.831 45.7188 119.008 45.8067L119.081 45.7501C118.966 45.5769 118.848 45.4929 118.633 45.4257ZM142.915 23.0368C142.985 23.1277 142.991 23.2383 142.997 23.349C142.999 23.3835 143 23.418 143.004 23.4518C143.03 23.6795 143.048 23.8481 142.886 24.0427C142.667 24.3047 142.165 24.406 141.828 24.45C140.89 24.5727 139.7 24.5488 138.504 24.5248C137.521 24.505 136.534 24.4852 135.682 24.5468L135.594 24.4609C136.297 24.2662 137.03 24.1398 137.759 24.0144C138.014 23.9704 138.269 23.9266 138.522 23.8799L142.915 23.0368ZM153.577 37.3548C153.536 36.4849 151.221 32.3791 150.432 31.8096C150.385 32.3419 152.377 37.7055 152.779 38.2371C152.91 38.1659 153.013 38.1053 153.128 38.0127C153.158 37.9825 153.19 37.9512 153.224 37.9189C153.392 37.7574 153.588 37.5697 153.577 37.3548ZM128.254 30.7586L128.324 30.8377C128.214 31.1804 127.866 31.5846 127.565 31.9337L127.565 31.9338C127.46 32.0547 127.362 32.1689 127.281 32.2718C125.517 34.5117 123.723 36.7482 121.585 38.7116C121.537 38.7563 121.487 38.8029 121.435 38.8508L121.435 38.8511C120.911 39.3396 120.246 39.9593 119.499 39.9642L119.417 39.7975C119.932 39.1555 120.52 38.5417 121.103 37.933L121.103 37.9327C121.356 37.6678 121.609 37.4039 121.854 37.139C123.905 34.9253 125.965 32.7757 128.254 30.7586ZM101.757 41.6719C101.477 41.5406 101.177 41.5094 100.866 41.5066C100.195 41.7135 99.7279 41.9595 99.3928 42.5479C99.3575 42.6102 99.3256 42.6739 99.2973 42.739C99.2688 42.804 99.2438 42.8702 99.2225 42.9376C99.2011 43.0048 99.1834 43.0729 99.1694 43.1416C99.1553 43.2106 99.1449 43.2799 99.1383 43.3497C99.1317 43.4194 99.1289 43.4892 99.1297 43.5594C99.1305 43.6294 99.1352 43.6992 99.1435 43.7687C99.1519 43.8383 99.164 43.9073 99.1797 43.9759C99.1955 44.0445 99.2149 44.1122 99.238 44.179C99.4324 44.7278 99.8449 45.1458 100.421 45.3877C100.658 45.4874 100.895 45.5267 101.152 45.5581C101.751 45.4062 102.149 45.2064 102.47 44.7063C102.515 44.6357 102.556 44.5632 102.593 44.4889C102.629 44.4146 102.662 44.3388 102.691 44.2615C102.72 44.1843 102.744 44.1059 102.764 44.0264C102.784 43.947 102.8 43.8668 102.812 43.786C102.823 43.7051 102.83 43.624 102.833 43.5425C102.835 43.461 102.833 43.3796 102.827 43.2983C102.821 43.217 102.81 43.1361 102.795 43.0558C102.78 42.9753 102.761 42.8958 102.737 42.8172C102.587 42.3265 102.261 41.9085 101.757 41.6719ZM122.485 41.2545L122.574 41.2662C122.788 41.2938 123.013 41.3228 123.21 41.3965C123.718 41.5854 124.127 42.0325 124.323 42.4877C124.596 43.1219 124.571 43.8803 124.232 44.4899C123.919 45.0541 123.456 45.3539 122.815 45.5622C122.531 45.5627 122.263 45.5421 122.009 45.4207C121.499 45.1771 121.147 44.7204 120.983 44.2274C120.755 43.5435 120.832 42.7755 121.223 42.1524C121.522 41.6747 121.908 41.404 122.485 41.2545ZM115.348 28.89C113.911 28.7262 112.469 28.6668 111.021 28.7118C110.703 29.3002 110.779 31.7413 110.826 33.2414L110.826 33.2414L110.826 33.242C110.838 33.6112 110.848 33.9233 110.849 34.1368C111.656 33.8934 113.56 33.6704 114.327 34.0562C114.432 34.1089 114.458 34.1487 114.507 34.2209C114.517 34.2358 114.528 34.252 114.54 34.27C114.461 34.353 114.362 34.3743 114.272 34.3935C114.156 34.4181 114.058 34.4392 114.039 34.5816C114.237 34.7012 114.434 34.7465 114.656 34.7979L114.699 34.8078C114.652 34.8203 114.606 34.8316 114.561 34.8428L114.561 34.8428L114.561 34.8428C114.357 34.8933 114.17 34.9395 114.004 35.0782C114.263 35.243 114.839 35.1823 115.21 35.1431C115.256 35.1383 115.299 35.1338 115.338 35.13C116.006 34.9313 116.657 34.6712 116.971 34.0598C117.365 33.2933 116.949 32.3614 116.62 31.6242L116.592 31.5622L116.515 31.3888L116.515 31.3887L116.515 31.3887C116.142 30.5526 115.765 29.706 115.348 28.89ZM110.573 39.6383C111.063 39.5987 111.554 39.5806 112.046 39.584C112.538 39.5875 113.029 39.6125 113.519 39.659C114.008 39.7055 114.494 39.7733 114.976 39.8624C115.458 39.9515 115.935 40.0615 116.405 40.1924C116.647 40.2604 116.893 40.3358 117.14 40.4118C117.929 40.654 118.74 40.9033 119.55 40.944C118.622 41.9993 118.426 43.0906 118.254 44.3928L112.768 44.3905L105.274 44.3979C105.28 44.1669 105.285 43.9348 105.265 43.7041C105.187 42.8109 104.817 41.7535 104.062 41.1576L103.969 41.0855L104.009 41.0072L103.857 40.9737C104.099 40.9212 104.344 40.8784 104.588 40.8356L104.588 40.8356L104.588 40.8356C104.856 40.7888 105.123 40.7419 105.388 40.6824C105.848 40.5791 106.297 40.468 106.744 40.3578L106.744 40.3578C107.999 40.0477 109.227 39.7444 110.573 39.6383ZM133.558 24.3993C132.947 24.2225 132.366 24.0638 131.719 24.0295L131.716 24.0299C131.153 24.0879 130.193 24.1869 129.822 24.608C129.81 24.6219 129.801 24.6375 129.791 24.6532C129.787 24.6611 129.782 24.6689 129.777 24.6765C129.915 24.8006 129.964 24.8014 130.147 24.8044L130.163 24.8047C130.441 24.8092 130.738 24.7551 131.022 24.7035C131.102 24.689 131.181 24.6746 131.258 24.6618C131.372 24.6522 131.487 24.643 131.601 24.6338C132.257 24.5809 132.915 24.528 133.558 24.3993Z" fill="#5A5959"/>
<path d="M153.398 38.8594C153.675 38.8614 153.888 38.8642 154.118 39.0162C154.127 39.0861 154.137 39.1457 154.129 39.2172C154.077 39.6326 152.898 40.2984 152.547 40.5324C152.458 40.5274 152.33 40.4855 152.242 40.4647C152.053 40.3042 151.817 40.0909 151.753 39.8535C151.72 39.7336 151.697 39.6099 151.775 39.5024C152.035 39.1447 152.96 38.9847 153.398 38.8594Z" fill="#F7B939"/>
<path d="M144.113 21.5459C144.328 21.643 144.492 21.7693 144.641 21.94C145.644 23.0873 146.278 24.5745 147.086 25.8448C147.645 26.723 148.329 27.5512 148.851 28.4451C148.961 28.6338 149.064 28.7556 149.036 28.974C148.837 28.9706 148.646 28.976 148.447 28.9922L148.332 29.1342C148.271 30.1676 150.833 35.5641 151.373 37.1839C151.432 37.3862 151.482 37.4489 151.421 37.6563C150.12 37.263 144.91 28.0075 143.934 26.4448C143.908 24.8212 144.082 23.1732 144.113 21.5459Z" fill="#F7B939"/>
<path d="M125.025 28.1693C125.371 27.7014 125.83 27.2135 126.325 26.8699C126.69 26.6163 127.101 26.4284 127.55 26.335C128.522 26.1329 129.598 26.0815 130.589 25.9868C133.591 25.7038 136.599 25.5217 139.615 25.4405C140.489 25.4109 141.447 25.2902 142.308 25.382C142.476 25.5536 142.461 25.5823 142.483 25.8149C142.273 26.0875 141.982 26.2103 141.646 26.3299C140.753 26.6483 139.755 26.8179 138.824 27.0335L133.337 28.3047C131.73 28.6794 130.078 28.9981 128.574 29.6476C127.794 30.013 127.283 30.1119 126.404 30.0965C124.59 31.1727 123.396 33.2447 122.151 34.8104C120.912 36.3691 119.65 37.9551 118.269 39.4125C118.924 37.2988 119.933 34.6623 121.175 32.7936C121.755 31.9207 122.486 31.1088 123.162 30.2963C123.761 29.5776 124.341 28.8236 125.025 28.1693Z" fill="#F7B939"/>
<path d="M105.044 32.78C109.146 32.2748 107.979 34.764 109.899 35.5195C111.139 36.0074 112.556 35.9163 113.86 36.1456C115.105 36.3644 116.324 36.7555 117.523 37.1243C117.342 37.8174 117.169 38.5086 117.023 39.2086C115.709 38.8201 114.424 38.5614 113.06 38.3697C110.028 38.179 107.497 38.9956 104.68 39.8943C103.703 39.6988 102.16 39.6965 101.345 39.1871C100.924 38.2749 101.311 34.5144 101.404 33.3306C102.538 32.9439 103.847 32.8949 105.044 32.78Z" fill="#F7B939"/>
<path d="M100.886 42.2393C100.987 42.2407 101.021 42.2394 101.13 42.2511C101.474 42.288 101.749 42.4047 101.963 42.6586C102.192 42.9294 102.266 43.2733 102.215 43.6075C102.136 44.1155 101.898 44.3963 101.462 44.7028C101.287 44.7077 101.103 44.7146 100.931 44.6787C100.616 44.6133 100.375 44.4275 100.213 44.1786C99.993 43.8394 99.9632 43.4495 100.084 43.0748C100.222 42.6439 100.464 42.4499 100.886 42.2393Z" fill="#5A5959"/>
<path d="M122.299 42.1479C122.395 42.1486 122.448 42.1466 122.538 42.1546C122.582 42.1582 122.625 42.1639 122.668 42.1716C122.711 42.1794 122.753 42.1892 122.795 42.2011C122.837 42.2129 122.878 42.2267 122.919 42.2426C122.959 42.2583 122.998 42.276 123.036 42.2956C123.074 42.3152 123.111 42.3365 123.147 42.3596C123.183 42.3827 123.217 42.4076 123.25 42.4341C123.282 42.4605 123.314 42.4884 123.343 42.5178C123.373 42.5472 123.4 42.5779 123.426 42.6101C123.68 42.9215 123.748 43.3088 123.664 43.6841C123.558 44.151 123.289 44.4138 122.857 44.661C122.694 44.663 122.524 44.6674 122.363 44.6461C122.071 44.6078 121.794 44.4107 121.627 44.1985C121.385 43.8908 121.333 43.5092 121.427 43.1457C121.555 42.6489 121.833 42.4057 122.299 42.1479Z" fill="#5A5959"/>
<path d="M147.492 28.1611C147.743 28.1747 147.893 28.1753 148.114 28.2965C148.143 28.5541 148.032 28.6483 147.893 28.8694C147.649 28.9034 147.647 28.9158 147.439 28.8002C147.352 28.5696 147.427 28.3872 147.492 28.1611Z" fill="#5A5959"/>
<path d="M125.024 28.169C125.27 28.1208 125.379 28.1021 125.626 28.1786C125.69 28.2784 125.755 28.3374 125.757 28.4549C125.759 28.6915 125.786 28.8976 125.838 29.1294C125.543 29.0921 125.192 29.0237 124.998 28.7964C124.896 28.6763 124.834 28.5672 124.886 28.4133C124.908 28.3508 124.987 28.2287 125.024 28.169Z" fill="#5A5959"/>
<path d="M110.423 40.125C113.206 39.7074 115.956 40.5455 118.532 41.3763L117.805 43.603C116.31 43.6428 114.81 43.6227 113.315 43.6258C110.841 43.6269 108.368 43.6149 105.895 43.5898C105.636 42.8574 105.32 42.1371 105.026 41.4153C106.699 40.6763 108.582 40.3036 110.423 40.125Z" fill="#5A5959"/>
</svg>
