<svg id="e3Cga9oBFx01" xmlns="http://www.w3.org/2000/svg" xmlns:xlink="http://www.w3.org/1999/xlink" viewBox="0 0 1024 1024" shape-rendering="geometricPrecision" text-rendering="geometricPrecision" project-id="c7c5211afd954a8dbefc783e137a4bfa" export-id="13e619182d2440d681b1d2665f4322eb" cached="false"><g transform="translate(.000001 0)"><path d="M126.555,403.738l89.443.225-.159,27.735c-10.062.416-20.241.007-30.318.095-.259,26.017-.001,52.062.007,78.082l-.009,30.976-31.418.021-.088-108.934q-13.81-.038-27.618-.302c.031-9.268-.299-18.644.16-27.898Z" fill="#f9f9f9"/><path d="M571.239,403.412l38.522.154c-18.532,21.612-36.728,43.709-55.814,64.822c12.757,14.654,24.944,29.863,37.303,44.857q11.256,13.638,21.945,27.726-19.987-.276-39.973.075c-9.447-12.681-19.389-25.013-29.148-37.455-6.029-7.685-11.782-15.657-18.069-23.128q.045,30.275-.248,60.548l-30.839-.036-.251-137.469l31.34.029c-.101,18.409-.282,36.902.249,55.303q21.769-28.299,44.983-55.426Z" fill="#f9f9f9"/><path d="M778.498,404.074c12.9.564,25.876.306,38.79.323c9.713.013,19.623-.261,29.195,1.629c6.483,1.28,12.522,3.391,17.745,7.535c8.584,6.811,12.935,16.769,14.163,27.479c1.458,12.716.017,27.146-8.337,37.408-8.772,10.776-21.783,13.575-34.929,15.006-7.91.227-15.837.199-23.75.264l-.083,43.996c-10.922.02267-21.84367.10467-32.765.246.063-44.613-.499-89.282-.029-133.886Zm32.809,63.679c8.792.092,22.041,1.863,29.066-4.647c4.02-4.993,5.565-10.665,4.929-17.048-.441-4.416-2.06-8.492-5.535-11.379-7.409-6.155-19.515-4.631-28.527-4.415-.05667,12.496-.03433,24.99233.067,37.489Z" fill="#f9f9f9"/><path d="M398.078,402.517l29.309.011c2.373,7.014,5.554,13.894,8.259,20.798l16.279,42.021l19.836,51.564c3,7.973,5.648,16.069,8.772,23.997l-33.169-.036c-3.724-8.544-6.384-17.603-9.67-26.332l-11.069.003-40.793-.046c-2.432,8.549-5.765,18.096-9.849,26.008l-33.236-.022l39.003-97.637c4.771-11.98,10.101-29.536,16.328-40.329Zm-3.074,87.456l17.664.018l15.602.004c-2.023-6.168-14.063-42.55-16.738-44.799-5.28467,15.00867-10.794,29.93433-16.528,44.777Z" fill="#ffe699"/><path d="M234.861,403.915l35.495-.065c8.352-.012,17.023-.474,25.291.814c5.053.787,9.856,2.292,14.333,4.779c8.531,4.74,14.026,12.171,16.635,21.524c3.29,11.8,2.738,26.456-3.535,37.223-5.304,9.103-13.933,13.453-23.767,16.127c8.893,11.203,17.077,22.797,25.296,34.493c5.116,7.279,10.137,15.055,15.991,21.747-8.771.246-17.575.145-26.35.198l-11.016-.076c-7.694-11.47933-15.30233-23.01467-22.825-34.606-4.495-6.905-8.769-14.281-13.879-20.74l-.011,55.268-31.84.055c-.54-26.745.163-53.532.165-80.28.001-18.696-1.056-37.824.017-56.461Zm31.975,62.965c8.736-.096,16.409.53,23.663-5.295c4.151-5.066,5.521-10.56,4.873-17.062-.392-3.939-1.882-7.635-5-10.191-6.181-5.066-15.977-3.939-23.481-3.845-.005,12.126.12,24.27-.055,36.393Z" transform="translate(0 0.000001)" fill="#f9f9f9"/><path d="M108.8,581.504c18.882-.445,37.872-.034,56.764-.035l109.93-.013l336.755.08c-9.277,9.63-19.154,18.67-28.649,28.083-19.119-.524-38.367-.084-57.499-.088l-110.464-.006-335.2282-.052c8.8713-9.7,19.0354-18.689,28.3912-27.969Z" fill="#f9f9f9"/><path d="M679.364,400.697c.224-.039.446-.09.671-.116c18.389-2.137,39.023,4.165,53.425,15.618c14.385,11.439,23.101,28.358,25.092,46.534c2.261,20.65-3.241,41.036-16.408,57.181-12.62,15.474-30.523,23.063-50.034,25.027-18.996.392-36.687-2.815-51.998-14.728-15.576-12.12-25.093-29.26-27.471-48.841-.14867-1.19133-.267-2.386-.355-3.584-.08867-1.19733-.147-2.39633-.175-3.597s-.02567-2.401.007-3.601c.032-1.20067.09433-2.39967.187-3.597s.21533-2.39133.368-3.582c.15267-1.19133.33533-2.378.548-3.56s.45467-2.35767.726-3.527c.272-1.17.573-2.33233.903-3.487.33-1.154.689-2.29933,1.077-3.436.38733-1.13667.80333-2.26267,1.248-3.378.44467-1.116.917-2.21967,1.417-3.311.5-1.092,1.027-2.17067,1.581-3.236s1.13467-2.116,1.742-3.152s1.24-2.05633,1.898-3.061c.65867-1.004,1.342-1.991,2.05-2.961.708-.96933,1.44-1.92067,2.196-2.854c12.701-15.973,31.301-24.52,51.305-26.751Zm-25.699,46.702c-.41067.57133-.807,1.15233-1.189,1.743s-.749,1.19033-1.101,1.799c-.35267.60867-.69,1.22567-1.012,1.851-.32133.62533-.62733,1.25833-.918,1.899s-.56533,1.288-.824,1.942-.501,1.314-.727,1.98c-.22667.66667-.43633,1.338-.629,2.014-.19333.67667-.36967,1.35733-.529,2.042-.15933.68533-.30167,1.374-.427,2.066s-.23367,1.387-.325,2.085c-.09067.69733-.16433,1.39667-.221,2.098-.05667.70067-.096,1.40267-.118,2.106-.022.70267-.02667,1.40567-.014,2.109s.04267,1.406.09,2.108c.048.702.113,1.40233.195,2.101.082.698.181,1.394.297,2.088.102.662.22067,1.32133.356,1.978.13533.656.287,1.30833.455,1.957s.35233,1.293.553,1.933c.2.63933.416,1.27333.648,1.902s.47967,1.251.743,1.867.542,1.22533.836,1.828c.294.602.60267,1.19633.926,1.783.32333.58733.66133,1.16567,1.014,1.735.35267.57.71933,1.13067,1.1,1.682.38067.552.775,1.09367,1.183,1.625.40733.532.828,1.05333,1.262,1.564s.88067,1.01,1.34,1.498c.45867.48867.92933.965,1.412,1.429.48267.46533.977.91767,1.483,1.357.50533.44,1.02133.867,1.548,1.281.52733.414,1.06433.81467,1.611,1.202c8.994,6.471,18.568,8.267,29.441,7.404c10.887-1.962,20.245-7.565,26.628-16.686c6.615-9.454,8.454-21.177,6.341-32.409-1.966-10.455-8.192-20.264-17.054-26.221-8.056-5.415-17.644-7.401-27.23-6.481-10.849,1.699-20.572,6.736-27.144,15.741Z" transform="translate(0 0.000001)" fill="#f9f9f9"/></g><g transform="translate(.000001 0)"><g transform="translate(0 0.000001)"><path d="M869.508,525.213c3.223-.038,6.293.134,9.494.512c4.369,4.194,7.561,10.883,10.836,15.984c7.819,12.18,15.894,24.388,23.118,36.926-1.193,1.752-2.622,3.376-3.956,5.023c5.495,9.512,11.41,18.976,16.387,28.765c1.779,3.5,4.379,11.834,6.498,14.156.313.343,1.004.622,1.445.811c2.113.91,3.667,1.856,5.037,3.752c1.407,1.946,2.568,5.187,2.065,7.593-.394,1.877-3.804,3.688-5.322,4.691l-4.506-.82c-8.903,7.65-18.911,14.796-26.915,23.357-8.383.244-16.837.059-25.226.078-5.667.012-11.86.486-17.466-.365-16.603-2.523-45.573-20.755-60.096-30.019c13.501-.728,30.168-2.661,42.085-9.13c10.815-5.872,16.455-14.912,19.889-26.422c4.232-.11,8.463-.24267,12.693-.398-.442,11.277-3.401,22.218-10.988,30.83-11.469,13.018-30.541,10.794-46.349,11.693l-.379.512c.728.373.531.354,1.259.46c7.836,1.139,26.28-.215,33.868-2.554c1.52133-.47067,2.98967-1.071,4.405-1.801c1.416-.73,2.75667-1.57833,4.022-2.545c10.863-8.272,14.564-21.384,16.198-34.284c9.847,7.936,15.602,10.433,22.319,21.818c1.621,2.748,3.39,5.773,4.177,8.883c1.865,7.365,1.484,10.216,5.58,17.39-5.117,3.933-11.608,8.281-15.814,13.101l.109.525c5.633-1.413,13.892-9.537,18.699-13.371-1.27-2.216-2.611-4.437-3.725-6.736-1.861-3.84-1.926-7.162-.577-11.145-5.878-8.906-12.424-17.429-18.088-26.459-6.043-9.634-11.263-19.933-16.748-29.903-2.383-4.275-4.493-8.728-6.693-13.101l-.463.086c-8.323,1.606-16.439,4.232-24.619,6.443-15.58267,4.286-31.21867,8.367-46.908,12.243-11.1,19.097-32.289,47.399-48.689,62.473c2.048-.216,4.098-.421,6.159-.413c5.036.021,9.681,1.76,13.161,5.468c3.641,3.878,5.493,9.242,5.301,14.533-.00933.32733-.02667.654-.052.98-.02533.32667-.059.652-.101.976-.04133.32467-.091.648-.149.97s-.124.64267-.198.962c-.074.31867-.156.63533-.246.95s-.188.62667-.294.936c-.10533.31-.21867.617-.34.921-.12067.304-.249.605-.385.903-.136.29733-.27967.59133-.431.882-.15067.29-.30867.57633-.474.859s-.33733.56067-.516.834c-.17933.274-.36533.54333-.558.808s-.392.52433-.598.779c-.206.254-.418.503-.636.747s-.442.48233-.672.715c-.23067.23267-.46667.45933-.708.68-7.024,6.39-15.753,5.09-24.419,4.657-1.203-1.006-2.354-1.936-3.702-2.74-.29.753-.502,1.149-1.066,1.756-.602.646-.927.727-1.816.866-2.575.403-5.833.002-8.465-.012l-19.415-.054c-20.902-.025-41.682.168-62.571.714-6.512.171-12.544-.878-17.409-5.631-.23267-.23067-.45967-.467-.681-.709-.22067-.24267-.435-.49033-.643-.743-.20867-.25333-.41033-.51167-.605-.775-.19533-.26333-.38367-.53167-.565-.805-.18133-.27267-.35567-.55-.523-.832s-.32733-.568-.48-.858-.298-.58367-.436-.881c-.13733-.29733-.26733-.598-.39-.902s-.23733-.611-.344-.921c-.10667-.30933-.20567-.62167-.297-.937-.09067-.31467-.17333-.63167-.248-.951-.07467-.31867-.14133-.63933-.2-.962s-.109-.64667-.151-.972c-.042-.32467-.07567-.65033-.101-.977-.02533-.32733-.04233-.65467-.051-.982-.00867-.328-.009-.65567-.001-.983.087-5.117,2.15-10.147,6.014-13.564c5.576-4.93,11.127-4.204,17.953-3.842-2.423-.612-4.921-1.169-7.251-2.084-1.672-.657-3.319-1.473-3.991-3.256-2.299-6.096-1.342-36.418,1.513-42.257c5.969-4.653,19.726-3.907,27.127-4.246c1.59533-8.336,3.39733-16.62733,5.406-24.874-1.405-.036-3.393.112-4.696-.449-1.639-.706-2.512-1.685-3.087-3.367.411-1.177.472-1.41,1.638-2.046c4.703-2.568,53.106-2.076,59.4-.175c2.383.72,4.725,1.931,6.357,3.853c3.792,4.463,8.975,20.594,12.231,26.98c8.695-10.363,22.039-28.872,32.598-36.153c3.483-2.402,6.848-3.788,10.961-4.706c2.826-4.591,8.168-9.014,13.078-11.116c9.676-4.142,17.562-.39,26.515,3.067c14.985-2.906,29.935-6.53,44.899-9.631.059-2.551-.75-6.128.228-8.488.539-1.299,1.572-1.251,2.767-1.554Zm-75.514,24.001c-.101.126-.167.276-.251.415.778.772,1.041.756,2.12.776c1.961.035,4.091-.512,6.022-.865c4.228-.392,8.489-.675,12.643-1.59-3.362-1.071-6.554-2.032-10.107-2.24-3.088.351-8.385.948-10.427,3.504ZM667.697,592.259c1.883.626,3.798,1.16,5.519,2.167.829.716,1.621,1.544,2.614,2.014l.197-1.303-.48-.42.597-.289c-.073-3.373.961-21.73-.846-23.318-.926-.813-1.95-1.063-3.1-1.411-2.036,7.256-3.239,15.118-4.501,22.56Zm-13.515,84.077c.866.744,1.745.712,2.838.783c5.7.372,11.63-.015,17.354-.029l35.811.029c8.08.019,16.306-.171,24.361.492l.403-.343c-.632-1.049-1.281-1.558-2.462-1.965-3.313-1.142-68.971-.431-77.611-.162l-.694,1.195ZM841.804,544.804c-5.35,1.089-10.876,1.926-16.093,3.519l.483.52c10.379-.827,24.393.768,33.782-.586c1.854-.267,4.613-.88,5.815-2.467.894-1.179.793-2.2.653-3.579-.088-.864.012-1.792-.492-2.514l-24.148,5.107Zm78.366,86.959c.721-.431,1.288-.798,1.921-1.359.977-1.099,2.537-2.423,2.469-3.985-.229-5.269-12.952-30.137-17.29-33.586-.258,3.224,10.695,35.71,12.9,38.93Zm-169.975-6.651c-4.449,5.292-9.332,10.521-13.398,16.102l.45,1.01c4.511-.033,8.475-4.557,11.468-7.587c11.75-11.892,21.612-25.438,31.306-39.005c1.73-2.421,4.921-5.891,5.736-8.686l-.387-.479c-12.582,12.217-23.903,25.237-35.175,38.645ZM626.728,657.873c-.194.37733-.369.763-.525,1.157-.15667.394-.29367.795-.411,1.203-.11733.40733-.21467.81933-.292,1.236-.07733.41733-.13433.83733-.171,1.26-.036.422-.05167.84533-.047,1.27.00467.424.03.84667.076,1.268s.11233.83967.199,1.255.19333.82533.32,1.23c1.069,3.324,3.336,5.856,6.5,7.321c1.304.604,2.608.842,4.02,1.032c3.293-.92,5.479-2.13,7.245-5.159.246-.428.47067-.867.674-1.317.20267-.45.383-.909.541-1.377.15733-.468.29133-.94267.402-1.424s.19767-.96667.261-1.456c.06267-.49.101-.98167.115-1.475.014-.494.004-.987-.03-1.479-.03467-.49267-.09333-.98233-.176-1.469-.08267-.48733-.18933-.969-.32-1.445-.822-2.972-2.613-5.504-5.388-6.937-1.539-.795-3.188-.984-4.897-1.001-3.688,1.253-6.254,2.743-8.096,6.307Zm119.991-2.396c-2.146,3.774-2.573,8.426-1.319,12.568.904,2.986,2.838,5.752,5.64,7.228c1.396.735,2.871.86,4.429.857c3.527-1.262,6.07-3.078,7.792-6.495c1.86-3.692,2.001-8.286.499-12.127-1.078-2.757-3.327-5.465-6.116-6.609-1.239-.509-2.669-.666-3.987-.86-3.17.905-5.294,2.545-6.938,5.438Zm-57.016-48.549c4.433-1.474,14.9-2.825,19.116-.488.694.385.764.656,1.172,1.295-.989,1.146-2.575.35-2.754,1.887c1.155.77,2.304,1.032,3.626,1.37-1.423.422-2.71.613-3.821,1.638c1.604,1.122,5.405.518,7.333.314c3.672-1.204,7.25-2.779,8.978-6.482c2.227-4.774-.256-10.607-2.086-15.128-2.186-5.404-4.386-10.9-6.836-16.185-7.89933-.992-15.82733-1.35167-23.784-1.079-2.178,4.441-.99,26.312-.944,32.858Zm-30.017,39.646c-2.785.69-5.625,1.098-8.416,1.764l.835.203-.218.474.51.437c4.152,3.609,6.184,10.014,6.611,15.424.111,1.397.084,2.803.049,4.202l41.193-.045l30.155.014c.943-7.887,2.021-14.497,7.125-20.889-5.853-.324-11.713-2.828-17.288-4.552-2.586-.79267-5.20433-1.459-7.855-1.999-2.65067-.53933-5.321-.95-8.011-1.232-2.69-.28133-5.38733-.43267-8.092-.454-2.70533-.02067-5.405.089-8.099.329-10.029.871-18.866,3.937-28.499,6.324Z" transform="translate(.000001 0)" fill="#f9f9f9"/><path d="M634.939,656.003c.557.009.743.001,1.345.072c1.889.223,3.4.93,4.579,2.468c1.257,1.64,1.665,3.723,1.381,5.747-.432,3.077-1.739,4.778-4.135,6.634-.965.03-1.975.072-2.923-.146-1.727-.396-3.053-1.521-3.942-3.029-1.211-2.054-1.375-4.416-.712-6.685.762-2.61,2.088-3.785,4.407-5.061Z" fill="#f9f9f9"/><path d="M752.638,655.449c.528.004.817-.008,1.311.04q.36.033.715.103.354.071.7.179.345.107.677.251.331.143.646.321t.609.388.565.451q.27.24.514.507.243.267.457.559c1.393,1.886,1.771,4.232,1.305,6.505-.579,2.828-2.062,4.42-4.436,5.917-.895.012-1.828.039-2.716-.09-1.6-.232-3.125-1.426-4.043-2.711-1.331-1.864-1.617-4.175-1.1-6.377.707-3.009,2.234-4.482,4.796-6.043Z" fill="#f9f9f9"/><path d="M687.354,643.198c15.299-2.529,30.415,2.547,44.575,7.579l-3.997,13.487c-8.215.241-16.463.119-24.682.138q-20.391.01-40.782-.218c-1.423-4.436-3.163-8.799-4.775-13.171c9.194-4.476,19.544-6.733,29.661-7.815Z" fill="#f9f9f9"/></g><g transform="translate(.000001-.369627)"><path d="M923.569,635.53c1.521.012,2.692.029,3.959.95.046.423.105.784.057,1.217-.282,2.516-6.765,6.549-8.691,7.966-.493-.03-1.196-.284-1.681-.41-1.035-.972-2.334-2.264-2.687-3.702-.178-.726-.305-1.475.124-2.126c1.426-2.167,6.513-3.136,8.919-3.895Z" fill="#ffe699"/><path d="M872.536,530.666c1.185.588,2.086,1.353,2.906,2.387c5.511,6.949,8.995,15.957,13.439,23.651c3.073,5.319,6.832,10.335,9.698,15.749.605,1.143,1.172,1.881,1.021,3.204-1.098-.021-2.148.012-3.241.11l-.631.86c-.334,6.259,13.749,38.945,16.716,48.756.324,1.225.596,1.605.261,2.861-7.149-2.382-35.787-58.441-41.148-67.906-.148-9.834.81-19.816.979-29.672Z" fill="#ffe699"/><path d="M767.622,570.782c1.9-2.834,4.422-5.789,7.143-7.87c2.008-1.536,4.266-2.674,6.736-3.24c5.342-1.224,11.255-1.535,16.705-2.109q24.745-2.571,49.613-3.309c4.801-.179,10.068-.91,14.799-.354.923,1.039.842,1.213.962,2.622-1.153,1.651-2.753,2.395-4.599,3.119-4.912,1.929-10.394,2.956-15.513,4.262l-30.158,7.699c-8.836,2.27-17.913,4.2-26.183,8.134-4.288,2.213-7.096,2.812-11.926,2.719-9.973,6.518-16.532,19.068-23.375,28.551-6.812,9.441-13.748,19.047-21.342,27.874c3.601-12.802,9.147-28.771,15.975-40.089c3.189-5.287,7.205-10.205,10.924-15.126c3.29-4.353,6.481-8.92,10.239-12.883Z" fill="#ffe699"/><path d="M657.795,598.708c22.544-3.06,16.129,12.017,26.682,16.593c6.817,2.955,14.606,2.403,21.775,3.792c6.839,1.325,13.541,3.694,20.13,5.928-.992,4.198-1.943,8.384-2.744,12.624-7.227-2.353-14.29-3.92-21.783-5.081-16.67-1.155-30.579,3.791-46.063,9.234-5.37-1.184-13.852-1.198-18.332-4.283-2.314-5.525-.188-28.302.324-35.472c6.235-2.342,13.43-2.639,20.011-3.335Z" fill="#ffe699"/></g><g><path d="M891.118,570.734c1.381.082,2.203.086,3.42.82.162,1.56-.451,2.131-1.217,3.47-1.34.206-1.352.281-2.496-.419-.477-1.397-.061-2.502.293-3.871Z" transform="translate(0-.369627)" fill="#f9f9f9"/><path d="M767.622,570.782c1.349-.292,1.949-.405,3.305.058.355.605.713.962.719,1.674.013,1.433.162,2.681.448,4.085-1.623-.226-3.55-.64-4.616-2.017-.563-.727-.905-1.388-.615-2.32.117-.379.555-1.118.759-1.48Z" transform="translate(0-.369627)" fill="#f9f9f9"/></g></g></svg>
